<svg width="16" height="16" viewBox="0 0 16 16" fill="none" xmlns="http://www.w3.org/2000/svg">
<path d="M12.3337 4.00016C12.2797 3.05386 12.1317 2.45126 11.7255 2.01692C11.0863 1.3335 10.0577 1.3335 8.00033 1.3335C5.94299 1.3335 4.91432 1.3335 4.27519 2.01692C3.86899 2.45126 3.72095 3.05386 3.66699 4.00016M12.3337 12.0002C12.2797 12.9464 12.1317 13.549 11.7255 13.9834C11.0863 14.6668 10.0577 14.6668 8.00033 14.6668C5.94299 14.6668 4.91432 14.6668 4.27519 13.9834C3.86898 13.549 3.72095 12.9464 3.66699 12.0002" stroke="#0072C6" stroke-width="1.5" stroke-linecap="round"/>
<path d="M6 1.3335L6.05933 1.68951C6.18792 2.46102 6.25221 2.84678 6.51679 3.08152C6.7928 3.32639 7.18407 3.3335 8 3.3335C8.81593 3.3335 9.2072 3.32639 9.4832 3.08152C9.7478 2.84678 9.81207 2.46102 9.94067 1.68951L10 1.3335" stroke="#0072C6" stroke-width="1.5" stroke-linejoin="round"/>
<path d="M7.33301 12.6665H8.66634" stroke="#0072C6" stroke-width="1.5" stroke-linecap="round" stroke-linejoin="round"/>
<path d="M2.66699 5.6665C2.66699 5.6665 3.33366 5.89717 3.33366 6.5415C3.33366 7.18584 2.66699 7.3555 2.66699 7.99984C2.66699 8.64417 3.33366 8.81384 3.33366 9.45817C3.33366 10.1025 2.66699 10.3332 2.66699 10.3332" stroke="#0072C6" stroke-width="1.5" stroke-linecap="round" stroke-linejoin="round"/>
<path d="M13.3337 5.6665C13.3337 5.6665 12.667 5.89717 12.667 6.5415C12.667 7.18584 13.3337 7.3555 13.3337 7.99984C13.3337 8.64417 12.667 8.81384 12.667 9.45817C12.667 10.1025 13.3337 10.3332 13.3337 10.3332" stroke="#0072C6" stroke-width="1.5" stroke-linecap="round" stroke-linejoin="round"/>
</svg>
